<svg width="138" height="33" viewBox="0 0 138 33" fill="none" xmlns="http://www.w3.org/2000/svg">
<path d="M3.9669 3.14698C4.13831 3.56343 4.41991 4.24934 4.8117 5.20472C5.20349 6.13561 5.64426 7.20123 6.134 8.40158C6.64822 9.60193 7.1747 10.8758 7.71341 12.2231C8.27661 13.5704 8.80308 14.8443 9.29282 16.0446C9.78256 17.245 10.2233 18.3228 10.6151 19.2782C11.0069 20.2091 11.2885 20.8828 11.4599 21.2992C11.4844 21.3482 11.5456 21.5197 11.6436 21.8136C11.7415 22.1076 11.815 22.3648 11.864 22.5853L12.2313 21.2992C12.4027 20.8828 12.6843 20.2091 13.0761 19.2782C13.4679 18.3228 13.9086 17.245 14.3984 16.0446C14.8881 14.8443 15.4023 13.5704 15.941 12.2231C16.5042 10.8758 17.0307 9.60193 17.5205 8.40158C18.0347 7.20123 18.4877 6.13561 18.8795 5.20472C19.2713 4.24934 19.5529 3.56343 19.7243 3.14698H23.6912C23.5443 3.48994 23.2749 4.11461 22.8831 5.021C22.5158 5.90289 22.0628 6.98075 21.5241 8.25459C20.9854 9.52843 20.3854 10.9248 19.7243 12.4436C19.0876 13.9624 18.4265 15.5057 17.7408 17.0735C17.0797 18.6413 16.4185 20.1846 15.7574 21.7034C15.1207 23.2222 14.533 24.6185 13.9943 25.8924C13.4801 27.1662 13.0271 28.2563 12.6353 29.1627C12.268 30.0446 12.0109 30.657 11.864 31L0 3.14698H3.9669Z" fill="white"/>
<path d="M30.7219 29.7874V3.14698H48.2057V6.78478H34.7623V14.5748H46.7364V18.2861H34.7623V26.0761H48.7199V29.7874H30.7219Z" fill="white"/>
<path d="M57.0646 29.7874V3.14698H64.3372C65.733 3.14698 67.0063 3.33071 68.1572 3.69816C69.3326 4.06562 70.3366 4.6168 71.1691 5.35171C72.0262 6.06212 72.6873 6.94401 73.1526 7.99738C73.6178 9.02625 73.8504 10.2143 73.8504 11.5617C73.8504 12.2966 73.777 13.0315 73.6301 13.7664C73.4831 14.4768 73.2383 15.175 72.8955 15.8609C72.5771 16.5223 72.1608 17.147 71.6466 17.7349C71.1324 18.2983 70.508 18.776 69.7734 19.168C70.7528 20.7113 71.818 22.4261 72.9689 24.3123C74.1198 26.1741 75.2829 27.9991 76.4583 29.7874H71.6466C71.1569 29.028 70.6427 28.2318 70.1039 27.399C69.5897 26.5661 69.0632 25.7454 68.5245 24.937C68.0103 24.1041 67.4961 23.2957 66.9818 22.5118C66.4921 21.7034 66.0268 20.9563 65.5861 20.2703H64.8515H61.105V29.7874H57.0646ZM61.105 16.4856H64.7413C65.7208 16.4856 66.5411 16.3263 67.2022 16.0079C67.8634 15.6649 68.3776 15.2485 68.7449 14.7585C69.1367 14.2686 69.4061 13.7419 69.553 13.1785C69.7244 12.615 69.8101 12.1006 69.8101 11.6352C69.8101 11.1697 69.7244 10.6675 69.553 10.1286C69.4061 9.56518 69.1367 9.05074 68.7449 8.5853C68.3531 8.09536 67.8266 7.69116 67.1655 7.3727C66.5288 7.05424 65.733 6.89501 64.778 6.89501H61.105V16.4856Z" fill="white"/>
<path d="M99.045 4.6168L97.6125 7.88714C96.6085 7.51969 95.6046 7.22572 94.6006 7.00525C93.6211 6.78478 92.6784 6.67454 91.7724 6.67454C90.2297 6.67454 88.9931 6.993 88.0626 7.62992C87.1566 8.26684 86.7036 9.07524 86.7036 10.0551C86.7036 10.888 87.0341 11.5617 87.6953 12.0761C88.3564 12.5661 89.1767 13.0192 90.1562 13.4357C91.1357 13.8276 92.2009 14.2318 93.3518 14.6483C94.5027 15.0402 95.5678 15.5547 96.5473 16.1916C97.5268 16.8285 98.3471 17.6369 99.0083 18.6168C99.6694 19.5722 100 20.8093 100 22.3281C100 23.5039 99.7796 24.5696 99.3389 25.5249C98.9226 26.4558 98.2859 27.2642 97.4289 27.9501C96.5963 28.636 95.5434 29.1627 94.27 29.5302C93.0212 29.8976 91.552 30.0814 89.8624 30.0814C88.7849 30.0814 87.8055 30.0079 86.9239 29.8609C86.0669 29.7139 85.2833 29.5302 84.5732 29.3097C83.8875 29.0647 83.2754 28.8075 82.7367 28.5381C82.2224 28.2686 81.7817 28.0236 81.4144 27.8032L83.1774 24.3123C84.1569 24.8758 85.2466 25.329 86.4464 25.6719C87.6463 26.0149 88.736 26.1864 89.7155 26.1864C90.2052 26.1864 90.8051 26.1251 91.5153 26.0026C92.2499 25.8801 92.9477 25.6719 93.6089 25.378C94.27 25.0595 94.8332 24.643 95.2985 24.1286C95.7882 23.6142 96.0331 22.965 96.0331 22.1811C96.0331 21.4707 95.8372 20.8705 95.4454 20.3806C95.0781 19.8661 94.5761 19.4252 93.9395 19.0577C93.3273 18.6658 92.6172 18.3228 91.8091 18.0289C91.0255 17.7104 90.2174 17.392 89.3849 17.0735C88.5523 16.7305 87.732 16.3753 86.9239 16.0079C86.1404 15.6404 85.4302 15.1995 84.7936 14.685C84.1814 14.1461 83.6794 13.5337 83.2876 12.8478C82.9203 12.1374 82.7367 11.2922 82.7367 10.3123C82.7367 9.40595 82.9203 8.51181 83.2876 7.62992C83.6549 6.74803 84.2059 5.96413 84.9405 5.27821C85.6751 4.5923 86.5811 4.04112 87.6585 3.62467C88.7605 3.20822 90.0338 3 91.4785 3C92.36 3 93.2171 3.07349 94.0497 3.22047C94.9067 3.36745 95.678 3.53893 96.3637 3.73491C97.0493 3.90639 97.6248 4.07787 98.09 4.24934C98.5798 4.42082 98.8981 4.54331 99.045 4.6168Z" fill="white"/>
<path fill-rule="evenodd" clip-rule="evenodd" d="M125.263 4.28182L132.965 12.0168C135.319 14.3815 135.319 18.2156 132.965 20.5804L125.263 28.3153C122.909 30.6801 119.091 30.6801 116.737 28.3153L109.035 20.5804C106.681 18.2156 106.681 14.3815 109.035 12.0168L116.737 4.28182C119.091 1.91704 122.909 1.91704 125.263 4.28182ZM122.827 6.72858C121.818 5.7151 120.182 5.7151 119.173 6.72858L111.471 14.4635C110.462 15.477 110.462 17.1202 111.471 18.1336L119.173 25.8686C120.182 26.8821 121.818 26.8821 122.827 25.8686L130.529 18.1336C131.538 17.1202 131.538 15.477 130.529 14.4635L122.827 6.72858Z" fill="white"/>
</svg>
